<?xml version="1.0" encoding="UTF-8" standalone="no"?>
<!DOCTYPE svg PUBLIC "-//W3C//DTD SVG 20010904//EN"
              "http://www.w3.org/TR/2001/REC-SVG-20010904/DTD/svg10.dtd">

<svg xmlns="http://www.w3.org/2000/svg" id="h--i_svg"
     width="14.1389in" height="14.1389in"
     viewBox="10 380 1018 260">
  <path id="h--i_path_1"
        fill="none" stroke="white" stroke-width="4" class="svg_h--i"
        d="M 205.00,556.00
           C 205.00,556.00 217.00,555.00 217.00,555.00
             217.00,555.00 233.00,556.00 233.00,556.00
             233.00,556.00 242.00,556.00 242.00,556.00
             242.00,556.00 252.00,557.00 252.00,557.00
             252.00,557.00 285.00,555.00 285.00,555.00
             285.00,555.00 287.83,580.00 287.83,580.00
             289.42,596.41 287.45,602.29 300.00,615.00
             304.76,619.81 312.53,628.78 319.00,630.44
             323.89,631.70 329.12,630.37 330.57,624.98
             332.10,619.27 327.66,612.55 326.16,607.00
             326.16,607.00 322.42,579.00 322.42,579.00
             322.42,579.00 317.57,543.00 317.57,543.00
             315.28,527.53 310.02,493.33 310.00,479.00
             310.00,479.00 310.00,466.00 310.00,466.00
             310.01,460.96 310.87,450.57 312.56,446.00
             314.89,439.68 319.85,436.43 318.79,429.00
             317.90,422.86 310.43,415.20 306.00,411.09
             302.09,407.46 298.51,404.51 293.00,404.10
             275.36,402.79 274.02,422.96 274.00,436.00
             274.00,436.00 274.00,464.00 274.00,464.00
             274.00,464.00 279.00,519.00 279.00,519.00
             266.19,514.32 255.10,519.98 242.00,519.96
             242.00,519.96 225.00,519.96 225.00,519.96
             225.00,519.96 205.00,518.00 205.00,518.00
             205.00,518.00 207.00,484.00 207.00,484.00
             207.00,484.00 208.00,470.00 208.00,470.00
             208.00,470.00 209.05,456.00 209.05,456.00
             209.05,456.00 209.05,449.00 209.05,449.00
             209.87,443.44 213.27,438.60 213.80,433.00
             214.10,429.90 213.46,426.71 211.91,424.00
             209.73,420.15 195.85,406.44 192.00,403.80
             188.06,401.09 182.35,399.74 178.13,402.74
             173.42,406.08 174.24,411.97 173.58,417.00
             173.58,417.00 171.00,457.00 171.00,457.00
             171.00,457.00 169.00,487.00 169.00,487.00
             169.00,487.00 169.00,503.00 169.00,503.00
             169.00,503.00 168.00,518.00 168.00,518.00
             168.00,518.00 168.00,559.00 168.00,559.00
             167.98,569.80 161.61,590.62 165.01,599.00
             166.77,603.36 172.58,608.62 176.00,612.00
             180.65,616.58 190.75,624.97 197.57,619.26
             200.57,616.76 201.62,607.92 202.40,604.00
             205.83,586.83 205.00,573.25 205.00,556.00 Z
           M 285.00,530.00
           C 285.00,530.00 281.17,501.00 281.17,501.00
             281.17,501.00 279.83,483.00 279.83,483.00
             279.83,483.00 278.00,461.00 278.00,461.00
             278.00,461.00 278.00,440.00 278.00,440.00
             278.01,433.05 279.37,418.55 283.65,413.11
             289.62,405.50 300.64,410.94 303.22,419.00
             304.74,423.73 300.62,426.54 298.56,432.00
             296.87,436.50 296.01,447.02 296.00,452.00
             296.00,452.00 296.00,474.00 296.00,474.00
             296.03,491.21 305.43,549.26 308.42,570.00
             308.42,570.00 312.29,601.00 312.29,601.00
             313.12,604.10 316.48,610.90 314.89,613.89
             313.32,616.41 310.14,615.39 308.00,613.89
             304.04,611.72 297.57,604.20 295.56,600.00
             292.31,593.19 292.55,582.51 291.83,575.00
             291.83,575.00 287.00,537.00 287.00,537.00
             275.34,540.38 259.14,542.86 247.00,543.00
             247.00,543.00 223.00,541.83 223.00,541.83
             223.00,541.83 206.00,539.86 206.00,539.86
             206.00,539.86 191.00,541.00 191.00,541.00
             191.00,560.86 191.79,568.87 188.41,589.00
             187.79,592.72 186.79,602.79 183.57,604.81
             179.16,607.57 172.92,601.27 170.65,598.00
             169.37,596.15 168.50,594.26 168.30,592.00
             168.30,592.00 172.00,564.00 172.00,564.00
             172.00,564.00 172.00,522.00 172.00,522.00
             172.00,522.00 173.00,505.00 173.00,505.00
             173.00,505.00 175.83,448.00 175.83,448.00
             175.83,448.00 177.83,419.00 177.83,419.00
             178.19,415.40 177.80,411.17 180.51,408.32
             185.94,402.60 195.42,413.48 197.68,418.00
             200.20,423.04 196.80,427.10 195.68,432.00
             195.68,432.00 194.00,452.00 194.00,452.00
             194.00,452.00 191.00,508.00 191.00,508.00
             191.00,510.77 190.79,514.43 192.17,516.89
             195.14,522.18 207.42,522.93 213.00,523.00
             213.00,523.00 245.00,524.00 245.00,524.00
             245.00,524.00 270.00,521.68 270.00,521.68
             274.90,522.22 277.73,526.69 285.00,530.00 Z
           M 206.00,425.00
           C 206.00,425.00 208.29,432.00 208.29,432.00
             208.29,432.00 206.17,441.00 206.17,441.00
             206.17,441.00 204.28,457.00 204.28,457.00
             204.28,457.00 203.00,481.00 203.00,481.00
             203.00,481.00 201.00,517.00 201.00,517.00
             199.01,516.13 197.53,515.73 196.16,513.73
             193.82,509.64 195.93,491.03 196.16,485.00
             196.16,485.00 196.91,475.00 196.91,475.00
             196.91,475.00 198.83,451.00 198.83,451.00
             199.84,440.50 198.39,434.51 204.00,425.00
             204.00,425.00 206.00,425.00 206.00,425.00 Z
           M 321.00,607.00
           C 315.83,602.35 315.63,597.52 314.85,591.00
             314.85,591.00 311.95,564.00 311.95,564.00
             309.24,539.79 300.03,491.29 300.00,469.00
             300.00,469.00 300.00,453.00 300.00,453.00
             300.01,447.01 300.87,436.06 304.00,431.00
             305.39,428.77 308.58,424.76 311.57,426.74
             313.96,428.33 313.81,431.68 312.85,434.00
             312.85,434.00 308.56,442.00 308.56,442.00
             307.16,445.71 306.05,455.87 306.00,460.00
             306.00,460.00 306.00,478.00 306.00,478.00
             306.00,478.00 309.84,515.00 309.84,515.00
             309.84,515.00 316.28,569.00 316.28,569.00
             316.28,569.00 321.00,607.00 321.00,607.00 Z
           M 283.00,543.00
           C 283.00,543.00 283.00,550.00 283.00,550.00
             273.82,552.07 264.44,553.04 255.00,553.00
             255.00,553.00 238.00,552.00 238.00,552.00
             238.00,552.00 216.00,549.86 216.00,549.86
             216.00,549.86 201.00,551.00 201.00,551.00
             201.00,570.26 201.92,580.61 198.42,600.00
             197.73,603.87 196.90,613.92 192.66,615.32
             190.20,616.13 187.07,614.13 185.00,613.00
             185.00,613.00 190.20,603.00 190.20,603.00
             190.20,603.00 192.00,594.00 192.00,594.00
             195.89,574.26 195.00,565.57 195.00,546.00
             195.00,546.00 207.00,544.34 207.00,544.34
             207.00,544.34 228.00,546.00 228.00,546.00
             228.00,546.00 246.00,547.00 246.00,547.00
             246.00,547.00 283.00,543.00 283.00,543.00 Z
           M 322.00,611.00
           C 322.00,611.00 325.47,620.98 325.47,620.98
             325.76,625.84 321.45,626.28 318.00,624.27
             318.00,624.27 315.00,622.00 315.00,622.00
             315.00,622.00 322.00,611.00 322.00,611.00 Z" />
  <path id="h--i_path_2"
        fill="none" stroke="white" stroke-width="4" class="svg_h--i"
        d="M 476.00,508.44
           C 445.89,513.98 437.64,512.95 408.00,513.00
             397.19,513.02 380.71,514.11 382.20,529.00
             383.16,538.67 400.78,557.06 411.00,555.77
             416.60,555.07 418.52,551.27 426.00,550.02
             435.24,548.47 444.66,549.01 454.00,549.00
             454.00,549.00 466.00,548.04 466.00,548.04
             466.00,548.04 479.00,548.04 479.00,548.04
             485.29,547.99 503.38,546.74 507.26,541.73
             511.41,536.37 507.59,528.36 503.81,524.00
             503.81,524.00 496.00,516.00 496.00,516.00
             488.61,508.66 486.52,507.09 476.00,508.44 Z
           M 477.00,513.29
           C 483.56,512.75 487.52,514.58 491.63,520.01
             493.71,522.88 494.85,526.53 491.63,529.16
             488.50,531.81 478.34,532.80 474.00,533.42
             457.49,535.79 440.65,534.97 424.00,535.00
             419.90,535.01 412.84,535.45 409.00,536.64
             405.02,537.88 402.48,540.60 399.00,540.39
             393.15,540.03 385.71,530.83 387.64,525.02
             390.08,517.63 406.42,517.01 413.00,517.00
             413.00,517.00 461.00,515.83 461.00,515.83
             461.00,515.83 477.00,513.29 477.00,513.29 Z
           M 403.00,546.82
           C 408.53,539.71 415.35,539.10 424.00,539.00
             443.54,538.78 460.38,539.71 480.00,537.00
             483.71,536.49 488.59,535.71 492.00,534.20
             494.25,533.20 497.97,530.16 499.89,530.19
             501.92,530.23 503.15,532.22 503.51,534.00
             505.23,542.48 487.28,542.88 482.00,543.58
             466.14,545.67 449.98,544.98 434.00,545.00
             429.90,545.01 422.84,545.45 419.00,546.82
             411.02,549.13 411.39,553.58 403.00,546.82 Z" />
  <path id="h--i_path_3"
        fill="none" stroke="white" stroke-width="4" class="svg_h--i"
        d="M 658.00,508.44
           C 627.89,513.98 619.64,512.95 590.00,513.00
             579.19,513.02 562.71,514.11 564.20,529.00
             565.16,538.67 582.78,557.06 593.00,555.77
             598.60,555.07 600.52,551.27 608.00,550.02
             617.24,548.47 626.66,549.01 636.00,549.00
             636.00,549.00 648.00,548.04 648.00,548.04
             648.00,548.04 661.00,548.04 661.00,548.04
             667.29,547.99 685.38,546.74 689.26,541.73
             693.41,536.37 689.59,528.36 685.81,524.00
             685.81,524.00 678.00,516.00 678.00,516.00
             670.61,508.66 668.52,507.09 658.00,508.44 Z
           M 659.00,513.29
           C 665.76,512.72 669.42,514.36 673.63,520.00
             675.69,522.89 676.87,526.51 673.63,529.16
             670.50,531.81 660.34,532.80 656.00,533.42
             639.49,535.79 622.65,534.97 606.00,535.00
             601.90,535.01 594.84,535.45 591.00,536.64
             587.02,537.88 584.48,540.60 581.00,540.39
             575.15,540.03 567.71,530.83 569.64,525.02
             572.08,517.63 588.42,517.01 595.00,517.00
             595.00,517.00 643.00,515.83 643.00,515.83
             643.00,515.83 659.00,513.29 659.00,513.29 Z
           M 585.00,546.82
           C 590.53,539.71 597.35,539.10 606.00,539.00
             625.54,538.78 642.38,539.71 662.00,537.00
             665.71,536.49 670.59,535.71 674.00,534.20
             676.25,533.20 679.97,530.16 681.89,530.19
             683.92,530.23 685.15,532.22 685.51,534.00
             687.23,542.48 669.28,542.88 664.00,543.58
             648.14,545.67 631.98,544.98 616.00,545.00
             611.90,545.01 604.84,545.45 601.00,546.82
             593.02,549.13 593.39,553.58 585.00,546.82 Z" />
  <path id="h--i_path_4"
        fill="none" stroke="white" stroke-width="4" class="svg_h--i"
        d="M 771.02,401.74
           C 763.27,406.00 763.15,414.07 764.30,422.00
             765.35,429.31 774.33,449.99 778.63,456.00
             780.73,458.92 785.31,463.36 788.00,465.99
             792.82,470.69 801.43,478.43 808.89,475.26
             818.65,471.12 808.96,453.89 806.31,448.00
             801.40,437.11 804.46,437.45 803.90,430.00
             803.41,423.45 799.36,420.37 795.00,416.00
             788.10,409.08 781.87,399.13 771.02,401.74 Z
           M 774.04,406.65
           C 779.83,406.95 787.77,415.29 788.46,421.00
             789.28,424.75 787.29,426.83 788.46,431.17
             788.86,434.09 792.38,442.01 793.78,445.00
             795.04,447.68 800.92,458.70 795.69,460.19
             791.71,461.32 784.90,454.86 782.79,451.99
             778.94,446.76 770.02,426.53 768.67,420.00
             767.48,414.29 768.17,409.03 774.04,406.65 Z
           M 797.00,438.00
           C 792.71,433.65 792.62,430.73 794.00,425.00
             800.27,428.22 799.66,432.27 797.00,438.00 Z
           M 805.00,456.00
           C 806.22,459.53 811.98,474.12 802.00,469.36
             802.00,469.36 798.00,467.00 798.00,467.00
             798.00,467.00 805.00,456.00 805.00,456.00 Z
           M 780.04,496.69
           C 778.14,497.84 777.36,498.01 776.17,500.11
             774.95,502.28 774.17,517.43 773.91,521.00
             773.91,521.00 770.00,591.00 770.00,591.00
             770.16,604.64 779.75,614.46 790.00,622.48
             794.08,625.67 800.55,629.53 806.13,627.26
             814.39,623.66 807.11,610.04 806.13,604.00
             806.13,604.00 807.00,593.00 807.00,593.00
             807.00,593.00 809.09,556.00 809.09,556.00
             809.09,556.00 810.00,543.00 810.00,543.00
             810.00,543.00 811.00,526.00 811.00,526.00
             810.95,522.18 810.76,519.54 809.08,516.00
             806.27,510.05 794.38,498.61 788.00,496.69
             784.98,495.72 782.99,496.02 780.04,496.69 Z
           M 783.11,501.70
           C 789.25,501.43 795.05,507.17 796.74,513.00
             797.09,514.97 797.05,518.92 796.74,521.00
             796.74,521.00 793.91,567.00 793.91,567.00
             793.91,567.00 792.04,594.00 792.04,594.00
             792.32,600.99 795.95,607.37 794.39,610.67
             792.18,615.32 784.14,608.59 782.04,606.70
             773.75,599.21 773.95,591.20 774.00,581.00
             774.00,581.00 775.96,559.00 775.96,559.00
             775.96,559.00 775.96,550.00 775.96,550.00
             775.96,550.00 777.00,536.00 777.00,536.00
             777.00,536.00 778.00,523.00 778.00,523.00
             778.07,520.03 779.05,506.04 780.17,504.15
             781.26,502.33 781.56,502.61 783.11,501.70 Z
           M 803.00,517.00
           C 809.59,526.67 806.26,531.68 806.01,542.00
             806.01,542.00 804.09,573.00 804.09,573.00
             804.09,573.00 802.28,600.00 802.28,600.00
             801.80,604.11 801.92,607.00 803.04,611.00
             803.75,613.56 805.60,618.12 804.39,620.67
             802.52,624.60 797.11,620.48 795.00,619.00
             796.51,616.70 798.95,613.64 799.53,611.00
             800.62,606.02 796.37,600.58 796.04,593.00
             796.04,593.00 799.91,541.00 799.91,541.00
             800.34,534.84 800.40,522.10 803.00,517.00 Z" />
</svg>
